<svg xmlns="http://www.w3.org/2000/svg" fill="none" viewBox="503 128 383 384">
<path d="M630.831 496.196C630.838 498.333 631.284 500.449 632.142 502.409C633 504.367 634.25 506.127 635.818 507.579C637.385 509.031 639.233 510.143 641.247 510.846C643.262 511.55 645.399 511.83 647.527 511.668C728.383 505.866 804.747 448.507 829.128 358.918C830.409 353.765 834.267 351.182 839.403 351.182C842.038 351.288 844.525 352.43 846.324 354.362C848.123 356.295 849.09 358.859 849.017 361.501C849.017 381.477 823.402 433.684 786.771 463.98C784.905 465.554 783.416 467.532 782.416 469.763C781.417 471.995 780.933 474.424 781.001 476.869C781.037 478.857 781.466 480.819 782.26 482.64C783.055 484.463 784.201 486.11 785.63 487.487C787.061 488.864 788.749 489.945 790.597 490.665C792.445 491.388 794.418 491.736 796.399 491.692C799.609 491.692 804.747 489.758 811.166 483.956C836.783 460.746 885.603 395.651 885.603 324.104C885.603 219.209 804.702 128.819 691.797 128.819C591.052 128.819 503.777 211.321 503.777 306.712C503.777 369.873 553.834 417.56 619.921 417.56C670.626 417.56 717.473 381.477 730.312 331.84C731.592 326.689 735.435 324.104 740.572 324.104C743.208 324.21 745.695 325.354 747.498 327.284C749.298 329.215 750.271 331.781 750.202 334.425C750.202 356.984 707.845 435.663 621.851 435.663C601.313 435.663 575.651 429.861 557.675 419.541C555.27 418.372 552.648 417.714 549.975 417.607C547.929 417.527 545.891 417.874 543.984 418.624C542.079 419.374 540.347 420.511 538.901 421.965C537.454 423.418 536.324 425.155 535.58 427.069C534.835 428.982 534.493 431.027 534.576 433.08C534.66 435.708 535.41 438.271 536.758 440.527C538.105 442.781 540.005 444.656 542.277 445.968C566.023 459.568 594.261 466.593 623.132 466.593C695.006 466.593 760.463 417.607 779.719 345.425C781.001 340.272 784.858 337.689 789.981 337.689C792.617 337.795 795.104 338.937 796.906 340.868C798.707 342.8 799.678 345.364 799.609 348.008C799.609 377.654 746.992 473.047 645.597 480.783C641.674 481.075 637.998 482.809 635.273 485.653C632.547 488.498 630.966 492.253 630.831 496.196Z" fill="currentColor"/>
<path d="M797.68 360.204C801.613 346.727 803.345 337.374 803.345 331.298C803.225 328.675 802.105 326.199 800.214 324.382C798.323 322.565 795.808 321.546 793.189 321.538C790.751 321.583 788.396 322.445 786.501 323.987C784.607 325.528 783.28 327.66 782.733 330.045C781.663 334.472 779.372 346.469 777.111 354.085C778.046 351.234 778.9 348.339 779.673 345.397C780.954 340.229 784.812 337.661 789.935 337.661C792.569 337.762 795.056 338.902 796.859 340.831C798.661 342.76 799.634 345.324 799.564 347.965C799.443 352.12 798.779 356.239 797.59 360.22L797.68 360.204Z" fill="currentColor"/>
<path d="M852.224 346.12C852.101 343.5 850.981 341.028 849.095 339.212C847.209 337.396 844.699 336.375 842.084 336.359C839.648 336.408 837.296 337.271 835.405 338.812C833.514 340.352 832.189 342.483 831.642 344.866C830.556 349.399 828.222 361.578 825.932 369.178H826.036C827.152 365.792 828.191 362.363 829.051 358.873C830.331 353.704 834.189 351.137 839.326 351.137C841.959 351.239 844.446 352.378 846.245 354.308C848.046 356.237 849.013 358.8 848.94 361.442C848.867 364.649 848.426 367.838 847.629 370.945C850.824 359.703 852.224 351.575 852.224 346.12Z" fill="currentColor"/>
<path d="M731.305 249.354C738.182 249.34 745.03 250.261 751.662 252.089C755.144 247.327 756.884 241.51 756.589 235.612C756.294 229.716 753.982 224.102 750.044 219.713C746.105 215.325 740.779 212.431 734.961 211.519C729.145 210.607 723.192 211.733 718.105 214.707L728.654 232.113L708.899 223.546C706.223 227.876 704.881 232.901 705.042 237.992C705.204 243.083 706.859 248.013 709.802 252.165C716.813 250.269 724.045 249.324 731.305 249.354Z" fill="currentColor"/>
<path d="M579.12 361.381C587.441 361.381 594.187 354.615 594.187 346.269C594.187 337.926 587.441 331.159 579.12 331.159C570.798 331.159 564.051 337.926 564.051 346.269C564.051 354.615 570.798 361.381 579.12 361.381Z" fill="currentColor"/>
<path d="M579.12 300.942C587.441 300.942 594.187 294.178 594.187 285.832C594.187 277.487 587.441 270.722 579.12 270.722C570.798 270.722 564.051 277.487 564.051 285.832C564.051 294.178 570.798 300.942 579.12 300.942Z" fill="currentColor"/>
<path d="M548.979 331.161C557.301 331.161 564.048 324.396 564.048 316.051C564.048 307.705 557.301 300.94 548.979 300.94C540.657 300.94 533.91 307.705 533.91 316.051C533.91 324.396 540.657 331.161 548.979 331.161Z" fill="currentColor"/>
<path d="M616.787 417.532H619.8C670.505 417.532 717.352 381.449 730.189 331.812C731.471 326.659 735.312 324.076 740.451 324.076C743.085 324.182 745.574 325.324 747.375 327.254C749.177 329.187 750.148 331.751 750.079 334.395C749.849 339.67 748.66 344.857 746.569 349.702C746.932 349.14 747.25 348.548 747.517 347.933C751.331 339.195 753.3 329.761 753.304 320.222C753.304 305.399 743.026 295.729 728.275 295.729C702.554 295.729 697.402 318.242 686.551 342.312C675.296 367.305 654.623 394.338 602.486 394.338C548.317 394.338 492.655 356.305 506.232 278.972C506.397 278.004 506.534 277.142 506.638 276.341C504.65 286.332 503.641 296.495 503.625 306.683C503.776 368.938 552.28 416.08 616.787 417.532Z" fill="currentColor"/>
</svg>
