<svg xmlns="http://www.w3.org/2000/svg" fill="none" viewBox="173.66 128.82 1041.98 717.62">
<path d="M305.377 545.995H332.239V786.839H305.377V765.596H304.705C294.625 778.734 278.502 791.536 250.944 791.536C207.936 791.536 173.662 757.517 173.662 700.931C173.662 644.345 207.936 610.324 250.944 610.324C278.502 610.324 294.625 622.451 304.705 637.275H305.377V545.995ZM305.377 700.931C305.377 660.517 285.555 633.903 253.636 633.903C218.353 633.903 200.536 667.248 200.536 700.931C200.536 734.612 218.353 767.957 253.636 767.957C285.555 767.957 305.377 741.344 305.377 700.931Z" fill="#030615"></path>
<path d="M432.564 633.905C399.971 633.905 389.208 643.335 387.537 668.261H360.652C362.333 635.254 382.829 610.328 432.564 610.328C465.156 610.328 494.385 623.128 494.385 664.517V748.053C494.385 761.528 496.787 768.935 513.87 766.911V785.781C508.821 787.656 503.467 788.566 498.084 788.467C481.951 788.467 472.208 784.096 467.511 765.226H466.79C456.038 781.398 436.889 791.501 408.668 791.501C374.059 791.501 352.207 771.632 352.207 742.658C352.207 703.594 381.098 693.491 425.488 685.072C454.392 679.678 467.535 675.97 467.535 658.797C467.511 645.358 460.111 633.905 432.564 633.905ZM467.511 720.464V691.841C462.464 696.885 445.994 701.606 427.867 705.316C394.589 712.384 379.092 720.802 379.092 741.345C379.092 758.205 389.171 767.959 411.36 767.959C443.316 767.959 467.511 753.472 467.511 720.464Z" fill="#030615"></path>
<path d="M649.393 615.047H676.28V777.389C676.28 823.149 647.387 846.437 600.342 846.437C553.299 846.437 525.403 821.511 522.725 792.248H549.683C553.047 809.757 567.162 822.895 599.081 822.895C631.001 822.895 649.477 809.083 649.477 777.136V751.123H648.804C638.725 765.936 622.604 778.062 594.372 778.062C552.038 778.062 517.764 750.787 517.764 694.201C517.764 637.615 552.038 610.328 594.372 610.328C622.604 610.328 638.725 623.128 648.804 636.266H649.477L649.393 615.047ZM649.393 694.201C649.393 653.774 629.571 633.905 597.652 633.905C562.369 633.905 544.565 660.518 544.565 694.201C544.565 727.882 562.369 754.483 597.652 754.483C629.62 754.483 649.393 734.614 649.393 694.201Z" fill="#030615"></path>
<path d="M841.471 739.672C841.471 770.982 812.915 791.538 773.933 791.538C721.518 791.538 697.323 766.611 695.641 729.569H722.527C724.198 748.765 730.936 767.959 773.933 767.959C803.161 767.959 814.586 752.798 814.586 741.345C814.586 716.431 792.072 715.082 767.553 709.012C741.34 702.618 702.356 699.584 702.356 659.169C702.356 632.22 726.216 610.328 766.544 610.328C809.216 610.328 832.065 634.58 834.745 664.216H807.87C805.179 651.09 798.8 633.905 766.544 633.905C742.349 633.905 729.303 643.671 729.303 657.146C729.303 677.354 752.489 679.04 776.347 684.771C806.861 692.178 841.471 697.223 841.471 739.672Z" fill="#030615"></path>
<path d="M932.33 638.626H898.693V742.021C898.693 761.564 909.506 764.9 932.33 763.25V786.841C925.701 788.232 918.944 788.909 912.171 788.864C889.347 788.864 871.843 779.772 871.843 744.741V638.65H846.615V615.047H871.843V557.787H898.73V615.047H932.366L932.33 638.626Z" fill="#030615"></path>
<path d="M1075.19 733.94H1102.08C1093.33 765.936 1068.81 791.538 1026.14 791.538C974.053 791.538 942.469 754.821 942.469 700.933C942.469 643.671 974.725 610.328 1024.8 610.328C1078.56 610.328 1104.77 647.043 1104.77 708H969.355C969.355 738.997 987.831 767.959 1025.13 767.959C1059.41 767.959 1072.17 745.729 1075.19 733.94ZM969.355 684.482H1077.88C1077.88 656.857 1057.05 633.905 1024.8 633.905C992.541 633.905 969.355 656.786 969.355 684.482Z" fill="#030615"></path>
<path d="M1215.64 611.334V638.285H1214.97C1177.73 632.263 1151.8 658.492 1151.8 695.207V786.838H1124.92V615.043H1151.8V649.062H1152.47C1161.55 626.494 1175.3 610.322 1199.85 610.322C1205.13 610.267 1210.41 610.606 1215.64 611.334Z" fill="#030615"></path>
<path d="M630.831 496.196C630.838 498.333 631.284 500.449 632.142 502.409C633 504.367 634.25 506.127 635.818 507.579C637.385 509.031 639.233 510.143 641.247 510.846C643.262 511.55 645.399 511.83 647.527 511.668C728.383 505.866 804.747 448.507 829.128 358.918C830.409 353.765 834.267 351.182 839.403 351.182C842.038 351.288 844.525 352.43 846.324 354.362C848.123 356.295 849.09 358.859 849.017 361.501C849.017 381.477 823.402 433.684 786.771 463.98C784.905 465.554 783.416 467.532 782.416 469.763C781.417 471.995 780.933 474.424 781.001 476.869C781.037 478.857 781.466 480.819 782.26 482.64C783.055 484.463 784.201 486.11 785.63 487.487C787.061 488.864 788.749 489.945 790.597 490.665C792.445 491.388 794.418 491.736 796.399 491.692C799.609 491.692 804.747 489.758 811.166 483.956C836.783 460.746 885.603 395.651 885.603 324.104C885.603 219.209 804.702 128.819 691.797 128.819C591.052 128.819 503.777 211.321 503.777 306.712C503.777 369.873 553.834 417.56 619.921 417.56C670.626 417.56 717.473 381.477 730.312 331.84C731.592 326.689 735.435 324.104 740.572 324.104C743.208 324.21 745.695 325.354 747.498 327.284C749.298 329.215 750.271 331.781 750.202 334.425C750.202 356.984 707.845 435.663 621.851 435.663C601.313 435.663 575.651 429.861 557.675 419.541C555.27 418.372 552.648 417.714 549.975 417.607C547.929 417.527 545.891 417.874 543.984 418.624C542.079 419.374 540.347 420.511 538.901 421.965C537.454 423.418 536.324 425.155 535.58 427.069C534.835 428.982 534.493 431.027 534.576 433.08C534.66 435.708 535.41 438.271 536.758 440.527C538.105 442.781 540.005 444.656 542.277 445.968C566.023 459.568 594.261 466.593 623.132 466.593C695.006 466.593 760.463 417.607 779.719 345.425C781.001 340.272 784.858 337.689 789.981 337.689C792.617 337.795 795.104 338.937 796.906 340.868C798.707 342.8 799.678 345.364 799.609 348.008C799.609 377.654 746.992 473.047 645.597 480.783C641.674 481.075 637.998 482.809 635.273 485.653C632.547 488.498 630.966 492.253 630.831 496.196Z" fill="#4F43DD"></path>
<path d="M731.305 249.352C745.145 249.248 758.73 253.083 770.482 260.412C771.67 253.894 772.325 247.289 772.441 240.664C772.441 210.064 749.177 182.655 720.849 182.655C698.818 182.655 685.047 200.953 685.047 223.559C684.941 235.771 689.22 247.611 697.101 256.921C707.778 251.817 719.477 249.227 731.305 249.352Z" fill="white"></path>
<path d="M797.68 360.204C801.613 346.727 803.345 337.374 803.345 331.298C803.225 328.675 802.105 326.199 800.214 324.382C798.323 322.565 795.808 321.546 793.189 321.538C790.751 321.583 788.396 322.445 786.501 323.987C784.607 325.528 783.28 327.66 782.733 330.045C781.663 334.472 779.372 346.469 777.111 354.085C778.046 351.234 778.9 348.339 779.673 345.397C780.954 340.229 784.812 337.661 789.935 337.661C792.569 337.762 795.056 338.902 796.859 340.831C798.661 342.76 799.634 345.324 799.564 347.965C799.443 352.12 798.779 356.239 797.59 360.22L797.68 360.204Z" fill="#352D8E"></path>
<path d="M852.224 346.12C852.101 343.5 850.981 341.028 849.095 339.212C847.209 337.396 844.699 336.375 842.084 336.359C839.648 336.408 837.296 337.271 835.405 338.812C833.514 340.352 832.189 342.483 831.642 344.866C830.556 349.399 828.222 361.578 825.932 369.178H826.036C827.152 365.792 828.191 362.363 829.051 358.873C830.331 353.704 834.189 351.137 839.326 351.137C841.959 351.239 844.446 352.378 846.245 354.308C848.046 356.237 849.013 358.8 848.94 361.442C848.867 364.649 848.426 367.838 847.629 370.945C850.824 359.703 852.224 351.575 852.224 346.12Z" fill="#352D8E"></path>
<path d="M731.305 249.354C738.182 249.34 745.03 250.261 751.662 252.089C755.144 247.327 756.884 241.51 756.589 235.612C756.294 229.716 753.982 224.102 750.044 219.713C746.105 215.325 740.779 212.431 734.961 211.519C729.145 210.607 723.192 211.733 718.105 214.707L728.654 232.113L708.899 223.546C706.223 227.876 704.881 232.901 705.042 237.992C705.204 243.083 706.859 248.013 709.802 252.165C716.813 250.269 724.045 249.324 731.305 249.354Z" fill="#030615"></path>
<path d="M579.12 361.381C587.441 361.381 594.187 354.615 594.187 346.269C594.187 337.926 587.441 331.159 579.12 331.159C570.798 331.159 564.051 337.926 564.051 346.269C564.051 354.615 570.798 361.381 579.12 361.381Z" fill="#352D8E"></path>
<path d="M579.12 300.942C587.441 300.942 594.187 294.178 594.187 285.832C594.187 277.487 587.441 270.722 579.12 270.722C570.798 270.722 564.051 277.487 564.051 285.832C564.051 294.178 570.798 300.942 579.12 300.942Z" fill="#352D8E"></path>
<path d="M548.979 331.161C557.301 331.161 564.048 324.396 564.048 316.051C564.048 307.705 557.301 300.94 548.979 300.94C540.657 300.94 533.91 307.705 533.91 316.051C533.91 324.396 540.657 331.161 548.979 331.161Z" fill="#352D8E"></path>
<path d="M616.787 417.532H619.8C670.505 417.532 717.352 381.449 730.189 331.812C731.471 326.659 735.312 324.076 740.451 324.076C743.085 324.182 745.574 325.324 747.375 327.254C749.177 329.187 750.148 331.751 750.079 334.395C749.849 339.67 748.66 344.857 746.569 349.702C746.932 349.14 747.25 348.548 747.517 347.933C751.331 339.195 753.3 329.761 753.304 320.222C753.304 305.399 743.026 295.729 728.275 295.729C702.554 295.729 697.402 318.242 686.551 342.312C675.296 367.305 654.623 394.338 602.486 394.338C548.317 394.338 492.655 356.305 506.232 278.972C506.397 278.004 506.534 277.142 506.638 276.341C504.65 286.332 503.641 296.495 503.625 306.683C503.776 368.938 552.28 416.08 616.787 417.532Z" fill="#352D8E"></path>
</svg>