<svg xmlns="http://www.w3.org/2000/svg" version="1.0" preserveAspectRatio="xMidYMid meet" viewBox="12 12.74 935.1 713.25">

<g transform="translate(0.000000,739.000000) scale(0.100000,-0.100000)" fill="#000000" stroke="none">
<path d="M4670 7259 c-281 -15 -551 -88 -813 -221 -207 -105 -352 -210 -520 -376 -329 -324 -535 -733 -601 -1191 -22 -150 -22 -431 -1 -577 134 -929 840 -1638 1770 -1779 148 -23 441 -23 590 -1 356 54 686 191 960 399 386 293 651 694 770 1166 79 314 79 688 0 1002 -189 751 -766 1331 -1512 1520 -205 52 -406 70 -643 58z m-50 -1254 c146 -47 232 -98 339 -199 114 -110 207 -267 245 -416 71 -277 -10 -588 -209 -799 -167 -178 -384 -271 -631 -271 -226 0 -433 84 -594 240 -178 173 -264 376 -263 625 0 134 21 237 72 350 91 199 263 364 465 445 126 51 184 60 346 56 125 -3 157 -7 230 -31z m1432 -548 c110 -54 172 -158 170 -284 -1 -74 -25 -134 -78 -192 -85 -94 -150 -111 -436 -111 l-198 0 0 311 0 310 243 -3 242 -3 57 -28z"></path>
<path d="M122 1103 l3 -948 385 0 c334 0 394 2 450 18 95 25 236 98 308 159 234 196 369 550 334 870 -29 261 -122 462 -293 628 -82 81 -153 128 -249 167 -120 48 -168 53 -568 53 l-372 0 2 -947z m840 600 c88 -41 139 -83 199 -163 141 -188 178 -462 94 -703 -52 -152 -152 -270 -281 -333 l-78 -39 -233 -3 -233 -3 0 641 0 641 233 -3 232 -3 67 -32z"></path>
<path d="M4895 2038 c-3 -7 -4 -434 -3 -948 l3 -935 150 0 150 0 5 282 5 281 69 72 c38 39 72 67 75 62 3 -5 116 -165 249 -355 l244 -347 184 0 c101 0 184 2 184 4 0 3 -146 215 -326 471 -179 257 -324 471 -322 476 2 5 107 118 233 251 127 133 250 263 273 290 l44 48 -214 -1 -213 -1 -240 -260 -240 -260 -5 439 -5 438 -148 3 c-112 2 -149 0 -152 -10z"></path>
<path d="M6422 1103 l3 -948 385 0 c372 0 388 1 464 23 264 76 474 288 573 577 71 209 71 480 -1 691 -105 308 -337 530 -617 589 -55 12 -152 15 -440 15 l-369 0 2 -947z m850 595 c140 -70 251 -217 300 -397 28 -101 29 -285 4 -386 -55 -216 -195 -382 -367 -436 -51 -16 -93 -19 -270 -19 l-209 0 0 641 0 640 233 -3 233 -3 76 -37z"></path>
<path d="M8140 1099 l0 -950 433 3 c382 4 438 6 487 22 102 34 173 77 246 150 114 114 164 235 165 397 0 170 -54 298 -177 415 l-53 50 43 87 c51 101 72 199 62 291 -19 180 -126 340 -286 425 -105 56 -147 61 -552 61 l-368 0 0 -951z m798 608 c118 -78 137 -246 40 -346 -62 -64 -71 -66 -315 -69 l-223 -3 0 226 0 226 228 -3 229 -3 41 -28z m54 -739 c22 -6 61 -31 88 -55 144 -129 111 -347 -65 -429 -48 -23 -58 -24 -312 -24 l-263 0 0 260 0 260 256 0 c169 0 270 -4 296 -12z"></path>
<path d="M3782 1626 c-101 -25 -201 -83 -283 -165 -82 -82 -125 -150 -160 -251 -20 -58 -23 -89 -27 -285 -4 -261 6 -326 70 -454 74 -147 211 -262 371 -313 136 -43 363 -33 510 22 80 30 197 111 252 173 81 93 145 242 145 339 l0 39 -152 -3 -152 -3 -8 -43 c-14 -83 -84 -163 -183 -209 -56 -26 -69 -28 -190 -28 -129 0 -130 0 -194 35 -77 42 -134 109 -157 186 -12 43 -15 94 -12 247 3 187 4 194 31 249 30 62 83 115 149 150 36 19 62 23 163 26 105 3 127 1 179 -18 103 -39 176 -127 200 -242 l6 -28 152 0 151 0 -5 63 c-20 230 -214 443 -464 507 -91 24 -306 26 -392 6z"></path>
<path d="M1830 1148 c1 -372 4 -501 15 -563 40 -224 206 -393 435 -441 116 -25 311 -15 414 20 145 49 250 141 313 271 60 127 63 156 63 703 l0 493 -152 -3 -153 -3 -5 -490 -5 -490 -27 -50 c-33 -62 -80 -108 -138 -134 -68 -31 -217 -29 -285 3 -62 29 -107 76 -137 141 -23 50 -23 53 -26 538 l-3 487 -154 0 -155 0 0 -482z"></path>
</g>
</svg>