<svg xmlns="http://www.w3.org/2000/svg" version="1.0" preserveAspectRatio="xMidYMid meet" viewBox="0.11 111.74 597.89 91.76">

<g transform="translate(0.000000,315.000000) scale(0.100000,-0.100000)" fill="#000000" stroke="none">
<path d="M1114 2025 c-3 -6 -3 -156 -2 -335 l3 -325 73 -3 72 -3 0 335 0 334 -71 4 c-42 2 -73 -1 -75 -7z"/>
<path d="M4115 1988 c-2 -7 -6 -35 -7 -63 -3 -49 -4 -50 -36 -53 l-33 -3 3 -57 c3 -55 4 -57 33 -62 l30 -5 3 -138 c2 -109 6 -144 20 -170 25 -45 76 -67 158 -70 l69 -2 3 58 3 57 -36 0 c-22 0 -43 8 -55 20 -19 19 -20 31 -18 133 l3 112 50 5 50 5 0 55 0 55 -50 5 -50 5 -5 60 -5 60 -63 3 c-44 2 -64 -1 -67 -10z"/>
<path d="M707 1870 c-69 -18 -136 -71 -170 -135 -25 -48 -30 -184 -8 -225 68 -124 195 -183 316 -144 60 18 127 70 150 115 8 15 15 30 15 34 0 3 -32 5 -71 5 -61 0 -75 -3 -101 -25 -59 -50 -156 -18 -174 57 l-6 28 183 2 184 3 3 43 c2 24 -4 63 -13 86 -20 51 -85 119 -136 140 -48 20 -126 27 -172 16z m151 -146 c43 -49 29 -59 -86 -62 l-102 -3 0 26 c0 32 42 73 78 77 42 5 85 -9 110 -38z"/>
<path d="M1524 1867 c-92 -27 -160 -103 -184 -204 -10 -43 -9 -61 6 -112 59 -213 332 -266 460 -91 19 25 34 48 34 53 0 4 -34 7 -76 7 -67 0 -80 -3 -106 -25 -31 -26 -69 -32 -112 -15 -31 11 -74 88 -54 95 7 3 92 6 188 7 l175 3 3 33 c8 81 -57 188 -140 229 -54 27 -139 36 -194 20z m134 -120 c26 -13 56 -62 47 -77 -3 -6 -53 -10 -111 -10 -95 0 -104 2 -104 19 0 28 38 70 73 80 34 10 58 7 95 -12z"/>
<path d="M3073 1870 c-72 -15 -135 -66 -172 -139 -29 -55 -29 -176 -2 -229 30 -57 63 -89 122 -118 78 -40 164 -39 238 1 52 29 111 93 111 122 0 10 -18 13 -71 13 -62 0 -75 -3 -102 -26 -26 -22 -38 -25 -76 -21 -51 6 -91 42 -91 82 l0 25 183 2 182 3 3 28 c9 80 -65 200 -148 239 -45 21 -123 29 -177 18z m96 -110 c26 0 71 -49 71 -76 0 -24 -1 -24 -105 -24 -103 0 -105 0 -105 23 0 40 70 92 108 81 8 -2 22 -4 31 -4z"/>
<path d="M1942 1618 l3 -253 65 0 65 0 5 162 c5 161 5 163 33 190 23 23 36 28 77 28 41 0 54 -5 77 -28 l28 -27 3 -166 3 -165 67 3 67 3 5 162 c5 158 6 163 31 188 50 50 133 42 169 -17 18 -29 20 -51 20 -186 l0 -153 68 3 67 3 0 191 0 191 -28 42 c-35 52 -92 80 -165 81 -64 0 -106 -16 -151 -59 l-34 -32 -24 29 c-49 64 -173 82 -252 37 -54 -31 -61 -31 -61 0 0 24 -2 25 -70 25 l-70 0 2 -252z"/>
<path d="M3482 1618 l3 -253 68 -3 67 -3 0 153 c0 134 2 157 20 185 29 48 74 68 122 54 64 -20 72 -42 78 -226 l5 -160 68 -3 67 -3 0 188 c0 212 -5 232 -74 288 -35 28 -44 30 -115 30 -70 0 -81 -3 -114 -28 -41 -31 -57 -28 -57 9 0 23 -2 24 -70 24 l-70 0 2 -252z"/>
<path d="M4555 1856 c-85 -39 -129 -119 -129 -236 -1 -88 15 -139 57 -186 48 -56 99 -77 174 -72 50 3 71 10 107 35 l45 32 3 -32 3 -32 70 0 70 0 0 250 0 250 -70 0 c-69 0 -70 0 -73 -27 -2 -16 -6 -28 -8 -28 -3 0 -21 12 -41 27 -30 23 -48 28 -107 31 -45 1 -82 -3 -101 -12z m219 -145 c28 -29 31 -37 31 -97 0 -65 -1 -67 -39 -100 -107 -93 -240 31 -182 169 29 71 132 86 190 28z"/>
<path d="M5050 1615 l0 -256 68 3 67 3 5 148 c5 140 7 148 30 172 17 17 42 27 80 32 l55 8 3 74 3 74 -37 -6 c-21 -4 -54 -20 -75 -37 -49 -39 -59 -38 -59 5 l0 35 -70 0 -70 0 0 -255z"/>
<path d="M5420 1865 c0 -5 42 -109 60 -150 20 -44 49 -113 75 -175 14 -36 34 -81 42 -100 25 -54 20 -87 -30 -192 -66 -138 -67 -133 22 -133 l74 0 49 115 c27 63 53 124 58 135 71 158 210 488 210 497 0 5 -34 8 -77 6 l-76 -3 -24 -65 c-63 -172 -75 -206 -80 -222 -12 -42 -33 -9 -88 137 l-57 155 -79 0 c-44 0 -79 -2 -79 -5z"/>
<path d="M176 1784 c-20 -20 -20 -27 2 -47 26 -24 207 -24 240 -1 26 18 27 27 6 48 -12 13 -39 16 -124 16 -85 0 -112 -3 -124 -16z"/>
<path d="M23 1648 c-29 -14 -29 -33 -1 -52 17 -12 48 -16 121 -16 105 0 137 9 137 40 0 11 -9 24 -19 30 -26 13 -210 12 -238 -2z"/>
<path d="M128 1509 c-24 -13 -23 -46 1 -59 11 -5 67 -10 124 -10 91 0 106 2 122 20 17 19 17 21 0 40 -16 18 -31 20 -124 20 -58 0 -114 -5 -123 -11z"/>
</g>
</svg>