<svg xmlns="http://www.w3.org/2000/svg" version="1.0" preserveAspectRatio="xMidYMid meet" viewBox="29.69 40.05 1220.63 1098.65">

<g transform="translate(0.000000,1180.000000) scale(0.100000,-0.100000)" fill="#000000" stroke="none">
<path d="M3945 11389 c-261 -35 -486 -118 -692 -255 -107 -71 -265 -221 -356 -339 -247 -319 -394 -738 -453 -1290 -33 -317 -19 -820 36 -1206 10 -74 16 -137 12 -141 -4 -3 -52 -24 -107 -46 -154 -62 -294 -126 -475 -217 -1096 -555 -1668 -1301 -1609 -2100 53 -727 630 -1390 1654 -1900 116 -57 282 -134 370 -170 88 -37 163 -69 167 -73 3 -4 2 -32 -3 -62 -48 -307 -74 -774 -59 -1060 39 -760 233 -1292 605 -1666 134 -134 260 -225 415 -298 742 -350 1728 -95 2807 725 l142 109 163 -124 c1070 -807 2051 -1058 2785 -711 426 201 739 601 897 1146 90 314 129 620 128 1029 0 270 -10 429 -44 705 -11 94 -21 179 -22 189 -1 16 31 33 174 93 808 339 1403 775 1730 1266 220 329 315 668 289 1024 -41 559 -391 1081 -1030 1533 -251 179 -661 400 -999 539 -85 36 -158 67 -162 70 -4 4 -1 49 7 101 98 652 72 1353 -66 1822 -115 393 -271 664 -516 899 -443 425 -1085 530 -1813 298 -426 -136 -887 -388 -1348 -736 -90 -68 -167 -123 -172 -123 -5 0 -82 55 -172 123 -605 457 -1177 731 -1725 828 -135 24 -443 34 -558 18z m480 -589 c339 -58 731 -228 1143 -497 149 -97 381 -264 382 -274 0 -3 -64 -68 -141 -145 -296 -292 -594 -623 -853 -949 -71 -88 -140 -174 -154 -192 -27 -32 -29 -33 -212 -58 -475 -67 -1011 -181 -1418 -301 -64 -18 -117 -33 -118 -31 -6 6 -35 282 -45 432 -14 205 -6 582 16 745 61 459 199 796 414 1011 248 247 563 330 986 259z m4326 20 c585 -56 930 -503 1029 -1335 18 -147 24 -515 11 -700 -10 -145 -39 -426 -45 -432 -1 -1 -55 14 -121 33 -434 125 -1033 249 -1517 314 l-87 12 -135 171 c-261 333 -569 678 -870 976 -91 91 -166 167 -166 170 0 3 53 45 118 92 567 415 1096 655 1540 698 125 12 127 12 243 1z m-2211 -1300 c188 -177 687 -716 675 -728 -2 -2 -111 1 -242 7 -131 6 -389 11 -573 11 -184 0 -442 -5 -573 -11 -131 -6 -240 -9 -242 -7 -4 4 160 192 308 353 106 115 496 505 505 505 2 0 66 -59 142 -130z m520 -1300 c190 -11 519 -36 601 -46 46 -6 47 -7 136 -133 397 -558 790 -1230 1087 -1857 62 -132 116 -249 120 -261 18 -57 -387 -851 -696 -1367 -199 -332 -528 -828 -592 -893 -22 -23 -105 -33 -541 -65 -229 -17 -1318 -17 -1550 0 -422 30 -519 42 -541 65 -53 54 -334 472 -519 772 -271 440 -595 1050 -755 1422 l-22 52 63 138 c287 629 707 1359 1131 1964 l109 157 52 6 c172 21 646 51 942 60 175 5 773 -4 975 -14z m-2750 -165 c0 -3 -40 -67 -89 -144 -218 -339 -421 -689 -607 -1044 -115 -220 -119 -226 -131 -200 -24 54 -152 450 -198 608 -62 216 -130 494 -122 501 24 25 591 172 917 239 238 48 230 47 230 40z m4440 -47 c290 -59 835 -200 880 -228 15 -9 -21 -170 -105 -467 -52 -183 -182 -587 -208 -646 -12 -26 -16 -20 -131 200 -185 353 -383 695 -606 1044 -50 77 -90 142 -90 144 0 5 18 2 260 -47z m-6095 -603 c108 -427 240 -831 416 -1276 l89 -226 -33 -79 c-159 -371 -351 -945 -466 -1393 -28 -106 -51 -195 -53 -197 -6 -5 -182 72 -354 155 -413 200 -744 428 -984 678 -174 181 -275 333 -340 512 -253 692 311 1401 1545 1947 66 29 124 52 128 51 5 -1 28 -79 52 -172z m7652 129 c484 -207 915 -478 1189 -751 496 -492 566 -1013 206 -1517 -78 -108 -265 -301 -392 -403 -122 -99 -338 -244 -495 -334 -173 -99 -611 -306 -623 -294 -2 1 -25 90 -53 196 -114 443 -309 1026 -466 1393 l-33 79 89 226 c179 453 354 994 435 1351 21 91 24 100 30 100 3 0 54 -21 113 -46z m-6728 -2521 c161 -318 383 -705 604 -1051 71 -112 127 -205 125 -206 -7 -6 -435 84 -631 133 -202 50 -505 136 -515 145 -22 23 304 1136 333 1136 3 0 40 -71 84 -157z m5825 -123 c111 -336 249 -841 234 -856 -10 -9 -308 -93 -512 -144 -226 -57 -590 -132 -618 -128 -16 3 -12 12 25 68 201 299 533 871 707 1219 45 91 64 120 71 110 5 -8 47 -129 93 -269z m-6206 -1469 c413 -120 972 -236 1442 -301 l135 -18 32 -39 c17 -21 95 -117 172 -215 258 -323 636 -739 866 -955 58 -54 105 -101 105 -105 0 -11 -176 -142 -315 -235 -455 -306 -888 -495 -1258 -549 -162 -24 -389 -15 -514 20 -385 107 -641 411 -773 920 -68 260 -96 547 -87 901 7 258 38 615 54 615 2 0 66 -18 141 -39z m6560 -48 c31 -245 36 -338 36 -633 0 -329 -10 -454 -54 -671 -62 -302 -176 -564 -324 -741 -119 -142 -302 -257 -484 -305 -120 -31 -332 -42 -479 -23 -365 45 -814 237 -1273 543 -144 96 -330 234 -330 244 0 3 54 58 120 121 246 234 602 628 852 942 77 96 154 192 171 213 l32 38 205 30 c473 67 1044 189 1415 303 44 13 85 24 91 25 7 1 16 -34 22 -86z m-3828 -364 c309 -12 910 -7 1170 10 63 4 116 6 118 5 2 -1 -61 -76 -139 -166 -176 -201 -656 -688 -679 -688 -33 0 -765 762 -814 847 -6 12 -4 14 10 10 11 -4 161 -11 334 -18z"/>
<path d="M6270 7059 c-658 -81 -1114 -678 -1015 -1329 68 -452 401 -823 850 -946 93 -26 113 -28 295 -28 182 0 202 2 295 28 200 55 373 155 520 301 130 129 227 280 280 439 148 440 33 908 -300 1225 -73 70 -195 156 -280 199 -67 33 -209 80 -292 96 -106 20 -261 27 -353 15z"/>
</g>
</svg>