<svg xmlns="http://www.w3.org/2000/svg" viewBox="0 0 400 200" fill="none">
  
  <rect width="400" height="200" fill="#F5F1EA"></rect>
  
  <g stroke="#2A2A2A" stroke-width="0.5" opacity="0.18">
    <line x1="0" y1="40" x2="400" y2="40"></line>
    <line x1="0" y1="80" x2="400" y2="80"></line>
    <line x1="0" y1="120" x2="400" y2="120"></line>
    <line x1="0" y1="160" x2="400" y2="160"></line>
    <line x1="80" y1="0" x2="80" y2="200"></line>
    <line x1="160" y1="0" x2="160" y2="200"></line>
    <line x1="240" y1="0" x2="240" y2="200"></line>
    <line x1="320" y1="0" x2="320" y2="200"></line>
  </g>
  
  <path d="M20 160 C 100 150, 140 110, 200 95 S 320 50, 380 30" stroke="#111111" stroke-width="1.25" fill="none"></path>
  <path d="M20 110 C 100 130, 150 140, 210 120 S 320 90, 380 100" stroke="#C8632C" stroke-width="1.25" fill="none" stroke-dasharray="0 0"></path>
  
  <g fill="#111111">
    <circle cx="60" cy="157" r="2"></circle>
    <circle cx="140" cy="113" r="2"></circle>
    <circle cx="220" cy="87" r="2"></circle>
    <circle cx="300" cy="58" r="2"></circle>
    <circle cx="380" cy="30" r="2.5"></circle>
  </g>
  <g fill="#C8632C">
    <circle cx="60" cy="121" r="2"></circle>
    <circle cx="220" cy="120" r="2"></circle>
    <circle cx="380" cy="100" r="2"></circle>
  </g>
</svg>